<svg width="40" height="40" viewBox="0 0 40 40" fill="none" xmlns="http://www.w3.org/2000/svg">
<g clip-path="url(#clip0_129_684)">
<path fill-rule="evenodd" clip-rule="evenodd" d="M34.5582 25.2168V22.67C34.5586 22.5275 34.5308 22.3864 34.4765 22.2548C34.4222 22.1231 34.3423 22.0035 34.2416 21.9027C34.1409 21.802 34.0213 21.7222 33.8896 21.6679C33.7579 21.6135 33.6168 21.5858 33.4744 21.5861H30.2286C30.0864 21.5861 29.9456 21.6142 29.8142 21.6687C29.6829 21.7232 29.5636 21.8031 29.4632 21.9037C29.3628 22.0044 29.2832 22.1239 29.229 22.2554C29.1749 22.3869 29.1472 22.5278 29.1476 22.67V22.9048C29.1476 23.4878 28.4061 24.5292 28.0326 24.9169L24.4245 28.5221C24.0531 28.8929 23.559 29.1153 23.0351 29.1475H22.6389C22.3514 29.1475 22.0758 29.2617 21.8725 29.4649C21.6692 29.6682 21.5551 29.9439 21.5551 30.2313V33.48C21.558 33.7657 21.6734 34.0388 21.8763 34.2401C22.0792 34.4414 22.3531 34.5546 22.6389 34.5553H25.1405C25.7128 34.5559 26.2621 34.3301 26.6686 33.9271L33.964 26.6346C34.3295 26.2511 34.541 25.7464 34.5582 25.2168Z" fill="#E7BD06"/>
<path fill-rule="evenodd" clip-rule="evenodd" d="M22.6756 10.878H22.9133C23.4963 10.878 24.5377 11.6194 24.9253 11.9901L28.5278 15.5953C28.8977 15.9703 29.1181 16.4674 29.1475 16.9933V17.3753C29.1471 17.5177 29.1749 17.6588 29.2292 17.7905C29.2836 17.9222 29.3634 18.0418 29.4641 18.1425C29.5648 18.2432 29.6845 18.3231 29.8161 18.3774C29.9478 18.4317 30.0889 18.4595 30.2313 18.4591H33.48C33.7674 18.4591 34.0431 18.3449 34.2464 18.1417C34.4496 17.9384 34.5638 17.6628 34.5638 17.3753V14.8737C34.5642 14.3022 34.3384 13.7538 33.9356 13.3484L26.6402 6.05022C26.2552 5.69035 25.7521 5.48311 25.2253 5.46727H22.6784C22.536 5.4669 22.3949 5.49468 22.2632 5.54902C22.1316 5.60335 22.0119 5.68317 21.9112 5.78389C21.8105 5.88461 21.7307 6.00424 21.6764 6.1359C21.622 6.26757 21.5942 6.40867 21.5946 6.55111V9.79695C21.5946 10.0837 21.7085 10.3586 21.9112 10.5613C22.114 10.7641 22.3889 10.878 22.6756 10.878Z" fill="#E7BD06"/>
<path fill-rule="evenodd" clip-rule="evenodd" d="M17.3839 5.46445H14.8823C14.3099 5.46391 13.7606 5.68974 13.3541 6.09268L6.05878 13.3852C5.69891 13.7703 5.49167 14.2733 5.47583 14.8001V17.347C5.47583 17.6337 5.58972 17.9087 5.79245 18.1114C5.99518 18.3141 6.27013 18.428 6.55683 18.428H9.80268C10.0901 18.428 10.3658 18.3138 10.5691 18.1106C10.7723 17.9073 10.8865 17.6316 10.8865 17.3442V17.1065C10.8865 16.5235 11.6308 15.485 12.0015 15.0944L15.6095 11.4977C15.981 11.1269 16.4751 10.9045 16.999 10.8723H17.3839C17.6708 10.8723 17.9461 10.7585 18.1492 10.5559C18.3524 10.3532 18.4669 10.0783 18.4677 9.7913V6.54829C18.4681 6.40585 18.4403 6.26474 18.386 6.13308C18.3316 6.00141 18.2518 5.88178 18.1511 5.78107C18.0504 5.68035 17.9307 5.60053 17.7991 5.54619C17.6674 5.49186 17.5263 5.46408 17.3839 5.46445Z" fill="#E7BD06"/>
<path fill-rule="evenodd" clip-rule="evenodd" d="M17.3583 29.1475H17.1206C16.5376 29.1475 15.4991 28.4061 15.1086 28.0325L11.5062 24.4188C11.1354 24.0462 10.913 23.5512 10.8808 23.0265V22.6388C10.8808 22.4966 10.8527 22.3558 10.7982 22.2245C10.7437 22.0932 10.6638 21.9739 10.5631 21.8735C10.4625 21.773 10.343 21.6935 10.2115 21.6393C10.08 21.5851 9.93912 21.5575 9.79692 21.5578H6.55391C6.26744 21.5586 5.99291 21.6727 5.79035 21.8753C5.58778 22.0778 5.47365 22.3524 5.4729 22.6388V25.1404C5.47175 25.7129 5.69767 26.2624 6.10113 26.6686L13.3937 33.9583C13.7775 34.3202 14.2813 34.5277 14.8086 34.5412H17.3555C17.6422 34.5412 17.9171 34.4273 18.1199 34.2246C18.3226 34.0219 18.4365 33.7469 18.4365 33.4602V30.2229C18.435 29.9376 18.3208 29.6645 18.1189 29.4631C17.9169 29.2617 17.6435 29.1482 17.3583 29.1475Z" fill="#E7BD06"/>
<path fill-rule="evenodd" clip-rule="evenodd" d="M39.6831 31.6944L37.272 29.2862C37.1831 29.1865 37.0741 29.1067 36.9522 29.0521C36.8302 28.9974 36.6982 28.9692 36.5646 28.9692C36.431 28.9692 36.2989 28.9974 36.1769 29.0521C36.055 29.1067 35.946 29.1865 35.8571 29.2862L29.306 35.8316C29.2071 35.921 29.128 36.0302 29.0739 36.1521C29.0198 36.2739 28.9918 36.4058 28.9918 36.5391C28.9918 36.6724 29.0198 36.8043 29.0739 36.9261C29.128 37.048 29.2071 37.1571 29.306 37.2466L31.717 39.6576C31.8057 39.7577 31.9146 39.8378 32.0366 39.8927C32.1585 39.9476 32.2907 39.976 32.4245 39.976C32.5582 39.976 32.6904 39.9476 32.8124 39.8927C32.9343 39.8378 33.0433 39.7577 33.1319 39.6576L39.6831 33.1093C39.7816 33.0197 39.8603 32.9104 39.9142 32.7886C39.968 32.6668 39.9958 32.535 39.9958 32.4018C39.9958 32.2686 39.968 32.1369 39.9142 32.0151C39.8603 31.8933 39.7816 31.784 39.6831 31.6944Z" fill="#E7BD06"/>
<path fill-rule="evenodd" clip-rule="evenodd" d="M35.8288 10.694C35.9185 10.7925 36.0277 10.8713 36.1495 10.9251C36.2714 10.979 36.4031 11.0068 36.5363 11.0068C36.6695 11.0068 36.8012 10.979 36.9231 10.9251C37.0449 10.8713 37.1541 10.7925 37.2438 10.694L39.652 8.28298C39.7521 8.1943 39.8322 8.08538 39.8871 7.96342C39.942 7.84147 39.9704 7.70926 39.9704 7.57552C39.9704 7.44178 39.942 7.30957 39.8871 7.18761C39.8322 7.06566 39.7521 6.95674 39.652 6.86805L33.1093 0.316941C33.0197 0.218419 32.9105 0.139707 32.7886 0.0858471C32.6668 0.0319868 32.5351 0.00416565 32.4019 0.00416565C32.2687 0.00416565 32.1369 0.0319868 32.0151 0.0858471C31.8933 0.139707 31.7841 0.218419 31.6944 0.316941L29.2862 2.72798C29.1865 2.81691 29.1067 2.92591 29.0521 3.04783C28.9975 3.16975 28.9692 3.30184 28.9692 3.43544C28.9692 3.56904 28.9975 3.70113 29.0521 3.82305C29.1067 3.94498 29.1865 4.05397 29.2862 4.1429L35.8288 10.694Z" fill="#E7BD06"/>
<path fill-rule="evenodd" clip-rule="evenodd" d="M2.72796 10.7167C2.81689 10.8164 2.92589 10.8961 3.04781 10.9508C3.16973 11.0054 3.30183 11.0336 3.43543 11.0336C3.56903 11.0336 3.70112 11.0054 3.82304 10.9508C3.94496 10.8961 4.05396 10.8164 4.14289 10.7167L10.694 4.1712C10.7929 4.08179 10.872 3.97263 10.9261 3.85078C10.9802 3.72892 11.0082 3.59707 11.0082 3.46374C11.0082 3.3304 10.9802 3.19855 10.9261 3.0767C10.872 2.95484 10.7929 2.84568 10.694 2.75627L8.28297 0.342406C8.19404 0.242704 8.08504 0.162926 7.96312 0.1083C7.84119 0.0536748 7.7091 0.0254364 7.5755 0.0254364C7.4419 0.0254364 7.30981 0.0536748 7.18789 0.1083C7.06597 0.162926 6.95697 0.242704 6.86804 0.342406L0.316926 6.88786C0.218404 6.9775 0.139692 7.08674 0.0858319 7.20856C0.0319716 7.33039 0.00415039 7.46212 0.00415039 7.59532C0.00415039 7.72852 0.0319716 7.86026 0.0858319 7.98208C0.139692 8.10391 0.218404 8.21314 0.316926 8.30279L2.72796 10.7167Z" fill="#E7BD06"/>
<path fill-rule="evenodd" clip-rule="evenodd" d="M4.17125 29.306C4.08184 29.2071 3.97269 29.128 3.85083 29.0739C3.72897 29.0198 3.59712 28.9918 3.46379 28.9918C3.33046 28.9918 3.19861 29.0198 3.07675 29.0739C2.95489 29.128 2.84573 29.2071 2.75633 29.306L0.345289 31.717C0.245588 31.8059 0.165809 31.9149 0.111184 32.0369C0.0565587 32.1588 0.0283203 32.2909 0.0283203 32.4245C0.0283203 32.5581 0.0565587 32.6902 0.111184 32.8121C0.165809 32.934 0.245588 33.043 0.345289 33.1319L6.88791 39.6831C6.97756 39.7816 7.08679 39.8603 7.20862 39.9142C7.33044 39.968 7.46218 39.9958 7.59538 39.9958C7.72858 39.9958 7.86031 39.968 7.98214 39.9142C8.10396 39.8603 8.2132 39.7816 8.30284 39.6831L10.711 37.272C10.8107 37.1831 10.8905 37.0741 10.9452 36.9522C10.9998 36.8302 11.028 36.6982 11.028 36.5646C11.028 36.431 10.9998 36.2989 10.9452 36.1769C10.8905 36.055 10.8107 35.946 10.711 35.8571L4.17125 29.306Z" fill="#E7BD06"/>
</g>
<defs>
<clipPath id="clip0_129_684">
<rect width="40" height="40" fill="white"/>
</clipPath>
</defs>
</svg>
